<?xml version="1.0" standalone="no"?><!DOCTYPE svg PUBLIC "-//W3C//DTD SVG 1.1//EN" "http://www.w3.org/Graphics/SVG/1.1/DTD/svg11.dtd"><svg t="1605703768419" class="icon" viewBox="0 0 1024 1024" version="1.1" xmlns="http://www.w3.org/2000/svg" p-id="5574" xmlns:xlink="http://www.w3.org/1999/xlink" width="200" height="200"><defs><style type="text/css"></style></defs><path d="M149.8 64.4c-46.3 0-84 37.7-84 84s37.7 84 84 84 84-37.7 84-84-37.7-84-84-84z m0 124.2c-22.2 0-40.2-18.1-40.2-40.2 0-22.2 18.1-40.2 40.2-40.2 22.2 0 40.2 18.1 40.2 40.2 0 22.2-18.1 40.2-40.2 40.2zM148.3 306.7c-46.3 0-84 37.7-84 84s37.7 84 84 84 84-37.7 84-84-37.7-84-84-84z m0 124.2c-22.2 0-40.2-18.1-40.2-40.2 0-22.2 18.1-40.2 40.2-40.2 22.2 0 40.2 18.1 40.2 40.2 0 22.2-18 40.2-40.2 40.2zM148.3 549c-46.3 0-84 37.7-84 84s37.7 84 84 84 84-37.7 84-84c0-46.4-37.7-84-84-84z m0 124.2c-22.2 0-40.2-18.1-40.2-40.2 0-22.2 18.1-40.2 40.2-40.2 22.2 0 40.2 18.1 40.2 40.2s-18 40.2-40.2 40.2zM148.3 791.2c-46.3 0-84 37.7-84 84s37.7 84 84 84 84-37.7 84-84-37.7-84-84-84z m0 124.3c-22.2 0-40.2-18.1-40.2-40.2 0-22.2 18.1-40.2 40.2-40.2 22.2 0 40.2 18.1 40.2 40.2s-18 40.2-40.2 40.2zM360.2 199.6h548.9c28.3 0 51.2-23 51.2-51.2 0-28.3-23-51.2-51.2-51.2H360.2c-28.3 0-51.2 23-51.2 51.2 0 28.2 23 51.2 51.2 51.2zM909.1 824H360.2c-28.3 0-51.2 23-51.2 51.2 0 28.3 23 51.2 51.2 51.2h548.9c28.3 0 51.2-23 51.2-51.2 0-28.2-23-51.2-51.2-51.2zM909.1 581.7H360.2c-28.3 0-51.2 23-51.2 51.2s23 51.2 51.2 51.2h548.9c28.3 0 51.2-23 51.2-51.2s-23-51.2-51.2-51.2zM909.1 339.4H360.2c-28.3 0-51.2 23-51.2 51.2 0 28.3 23 51.2 51.2 51.2h548.9c28.3 0 51.2-23 51.2-51.2 0-28.2-23-51.2-51.2-51.2z" p-id="5575"></path></svg>