<?xml version="1.0" standalone="no"?><!DOCTYPE svg PUBLIC "-//W3C//DTD SVG 1.1//EN" "http://www.w3.org/Graphics/SVG/1.1/DTD/svg11.dtd"><svg t="1607438651496" class="icon" viewBox="0 0 1024 1024" version="1.1" xmlns="http://www.w3.org/2000/svg" p-id="7225" xmlns:xlink="http://www.w3.org/1999/xlink" width="200" height="200"><defs><style type="text/css"></style></defs><path d="M850.1 807.2H563.2c-16.6 0-30-13.4-30-30s13.4-30 30-30h286.9c16.6 0 30 13.4 30 30s-13.5 30-30 30zM283.3 807.2H170.7c-16.6 0-30-13.4-30-30s13.4-30 30-30h112.6c16.6 0 30 13.4 30 30s-13.4 30-30 30zM850.1 554.9H653c-16.6 0-30-13.4-30-30s13.4-30 30-30h197c16.6 0 30 13.4 30 30s-13.4 30-29.9 30zM368.6 554.9H170.7c-16.6 0-30-13.4-30-30s13.4-30 30-30h197.9c16.6 0 30 13.4 30 30s-13.5 30-30 30zM850.1 302.6H732c-16.6 0-30-13.4-30-30s13.4-30 30-30h118c16.6 0 30 13.4 30 30s-13.4 30-29.9 30zM443.2 302.6H170.7c-16.6 0-30-13.4-30-30s13.4-30 30-30h272.5c16.6 0 30 13.4 30 30s-13.4 30-30 30zM510.7 616.3c-48.4 0-87.8-39.4-87.8-87.8s39.4-87.8 87.8-87.8 87.8 39.4 87.8 87.8-39.4 87.8-87.8 87.8z m0-127.7c-22 0-39.8 17.9-39.8 39.8s17.9 39.8 39.8 39.8c22 0 39.8-17.9 39.8-39.8s-17.9-39.8-39.8-39.8zM587.7 355c-48.4 0-87.8-39.4-87.8-87.8s39.4-87.8 87.8-87.8 87.8 39.4 87.8 87.8-39.4 87.8-87.8 87.8z m0-127.7c-22 0-39.8 17.9-39.8 39.8s17.9 39.8 39.8 39.8 39.8-17.9 39.8-39.8-17.8-39.8-39.8-39.8zM423.2 865.1c-48.4 0-87.8-39.4-87.8-87.8s39.4-87.8 87.8-87.8 87.8 39.4 87.8 87.8c0.1 48.4-39.3 87.8-87.8 87.8z m0-127.7c-22 0-39.8 17.9-39.8 39.8s17.9 39.8 39.8 39.8 39.8-17.9 39.8-39.8-17.8-39.8-39.8-39.8z" fill="#e6e6e6" p-id="7226"></path></svg>