<svg width="128" height="128" xmlns="http://www.w3.org/2000/svg">
  <path d="M64 8c-30.928 0-56 25.072-56 56s25.072 56 56 56 56-25.072 56-56S94.928 8 64 8zm28.272 48.464l-2.144 1.488c-1.024 2.384-2.32 4.608-3.856 6.656l.816 2.608c.288.928.128 1.936-.416 2.72l-3.344 4.832c-.544.784-1.424 1.232-2.384 1.232-.32 0-.64-.064-.944-.192l-2.576-.832c-2.048 1.536-4.272 2.832-6.656 3.856l-1.488 2.144c-.416.896-1.312 1.456-2.288 1.456h-5.984c-.976 0-1.872-.56-2.288-1.456l-1.488-2.144c-2.384-1.024-4.608-2.32-6.656-3.856l-2.576.832c-.304.128-.624.192-.944.192-.96 0-1.84-.448-2.384-1.232l-3.344-4.832c-.544-.784-.704-1.792-.416-2.72l.816-2.608c-1.536-2.048-2.832-4.272-3.856-6.656l-2.144-1.488c-.896-.416-1.456-1.312-1.456-2.288v-5.984c0-.976.56-1.872 1.456-2.288l2.144-1.488c1.024-2.384 2.32-4.608 3.856-6.656l-.816-2.608c-.288-.928-.128-1.936.416-2.72l3.344-4.832c.544-.784 1.424-1.232 2.384-1.232.32 0 .64.064.944.192l2.576.832c2.048-1.536 4.272-2.832 6.656-3.856l1.488-2.144c.416-.896 1.312-1.456 2.288-1.456h5.984c.976 0 1.872.56 2.288 1.456l1.488 2.144c2.384 1.024 4.608 2.32 6.656 3.856l2.576-.832c.304-.128.624-.192.944-.192.96 0 1.84.448 2.384 1.232l3.344 4.832c.544.784.704 1.792.416 2.72l-.816 2.608c1.536 2.048 2.832 4.272 3.856 6.656l2.144 1.488c.896.416 1.456 1.312 1.456 2.288v5.984c0 .976-.56 1.872-1.456 2.288zM64 44.8c-10.608 0-19.2 8.592-19.2 19.2s8.592 19.2 19.2 19.2 19.2-8.592 19.2-19.2S74.608 44.8 64 44.8z"/>
</svg> 