<?xml version="1.0" standalone="no"?><!DOCTYPE svg PUBLIC "-//W3C//DTD SVG 1.1//EN" "http://www.w3.org/Graphics/SVG/1.1/DTD/svg11.dtd"><svg t="1607346938025" class="icon" viewBox="0 0 1024 1024" version="1.1" xmlns="http://www.w3.org/2000/svg" p-id="2494" xmlns:xlink="http://www.w3.org/1999/xlink" width="200" height="200"><defs><style type="text/css"></style></defs><path d="M627.8 429.5c39.2 55.2 34.3 132.3-15.4 182-55.4 55.4-145.1 55.6-200.3 0.4-55.2-55.2-55-144.9 0.4-200.3 49.7-49.7 126.7-54.6 182-15.4l34-34c-74-57.5-181-52.2-249.3 16-73.9 73.9-74.1 193.5-0.5 267.1s193.2 73.4 267.1-0.5c68.2-68.2 73.5-175.3 16-249.3l-34 34z m284.7-11.7H802.8c-5.1-15.5-10.9-30.7-18.2-45l77.3-77.3c18.4-18.4 18.4-48.2 0-66.6l-66.6-66.6c-18.4-18.4-48.2-18.4-66.6 0l-77.3 77.3c-14.3-7.3-29.5-13.2-45-18.2V111.5c0-26-21.1-47.1-47.1-47.1h-94.2c-26 0-47.1 21.1-47.1 47.1v109.6c-15.6 5.1-30.8 10.9-45.1 18.2l-77.2-77.2c-18.4-18.4-48.2-18.4-66.6 0l-66.6 66.6c-18.4 18.4-18.4 48.2 0 66.6l77.2 77.2c-7.4 14.4-13.7 29.5-18.7 45.1H111.5c-26 0-47.1 21.1-47.1 47.1v94.2c0 26 21.1 47.1 47.1 47.1h109.6c5.1 15.6 10.9 30.8 18.2 45.1l-77.2 77.2c-18.4 18.4-18.4 48.2 0 66.6l66.6 66.6c18.4 18.4 48.2 18.4 66.6 0l77.2-77.2c14.4 7.4 29.5 13.7 45.1 18.7v109.2c0 26 21.1 47.1 47.1 47.1h94.2c26 0 47.1-21.1 47.1-47.1V802.9c15.6-5.1 30.8-10.9 45.1-18.3l77.2 77.2c18.4 18.4 48.2 18.4 66.6 0l66.6-66.6c18.4-18.4 18.4-48.2 0-66.6l-77.2-77.2c7.4-14.4 13.7-29.5 18.7-45.1h109.2c26 0 47.1-21.1 47.1-47.1V465c0.3-26.1-20.8-47.2-46.8-47.2z m0 141.3H766.7c-6.7 36.5-21.1 70.2-41.3 99.6l103.2 103.2-66.6 66.6-103.2-103.1c-29.4 20.3-63.2 34.2-99.7 41v146.1h-94.2V766.7c-36.5-6.7-70.2-21.1-99.6-41.3L262.1 828.5l-66.6-66.6 103.1-103.1c-20.3-29.4-34.2-63.2-41-99.7H111.5v-94.2h145.8c6.7-36.5 21.1-70.2 41.3-99.6L195.5 262.1l66.6-66.6 103.1 103.1c29.4-20.3 63.2-34.2 99.7-41V111.5h94.2v146.1c36.4 6.7 70.3 20.7 99.7 40.9l103.1-103.1 66.6 66.6-103 103.2c20.3 29.4 34.2 63.3 40.9 99.7h146.1v94.2z" fill="#bfbfbf" p-id="2495"></path></svg>
