<?xml version="1.0" standalone="no"?><!DOCTYPE svg PUBLIC "-//W3C//DTD SVG 1.1//EN" "http://www.w3.org/Graphics/SVG/1.1/DTD/svg11.dtd"><svg t="1607438469400" class="icon" viewBox="0 0 1024 1024" version="1.1" xmlns="http://www.w3.org/2000/svg" p-id="6411" xmlns:xlink="http://www.w3.org/1999/xlink" width="200" height="200"><defs><style type="text/css"></style></defs><path d="M490.36 491.69H262.07c-90.24 0-163.66-73.42-163.66-163.66V99.75H326.7c90.24 0 163.66 73.42 163.66 163.66v228.28zM152.97 154.3v173.74c0 60.16 48.94 109.1 109.1 109.1h173.74V263.4c0-60.16-48.94-109.1-109.1-109.1H152.97zM761.93 491.69H533.64V263.4c0-90.24 73.42-163.66 163.66-163.66h228.29v228.29c0 90.25-73.42 163.66-163.66 163.66z m-173.74-54.55h173.74c60.16 0 109.1-48.94 109.1-109.1V154.3H697.3c-60.16 0-109.1 48.94-109.1 109.1v173.74zM326.7 924.25H98.41V695.97c0-90.24 73.42-163.66 163.66-163.66h228.29V760.6c0 90.23-73.42 163.65-163.66 163.65zM152.97 869.7H326.7c60.16 0 109.1-48.94 109.1-109.1V586.87H262.07c-60.16 0-109.1 48.94-109.1 109.1V869.7zM925.59 924.25H697.3c-90.24 0-163.66-73.42-163.66-163.66V532.31h228.29c90.24 0 163.66 73.42 163.66 163.66v228.28z m-337.4-337.38V760.6c0 60.16 48.94 109.1 109.1 109.1h173.74V695.97c0-60.16-48.94-109.1-109.1-109.1H588.19z" p-id="6412"></path></svg>